<?xml version="1.0" standalone="no"?>
<!DOCTYPE svg PUBLIC "-//W3C//DTD SVG 20010904//EN"
 "http://www.w3.org/TR/2001/REC-SVG-20010904/DTD/svg10.dtd">
<svg version="1.0" xmlns="http://www.w3.org/2000/svg"
 width="109.000000pt" height="109.000000pt" viewBox="0 0 109.000000 109.000000"
 preserveAspectRatio="xMidYMid meet">
<metadata>
Created by potrace 1.11, written by Peter Selinger 2001-2013
</metadata>
<g transform="translate(0.000000,109.000000) scale(0.100000,-0.100000)"
fill="#000000" stroke="none">
<path d="M418 981 c-154 -50 -263 -161 -310 -314 -26 -87 -22 -204 11 -290 45
-116 151 -221 269 -268 82 -33 242 -33 324 0 118 46 223 151 269 268 33 83 33
243 0 325 -46 118 -152 224 -268 269 -81 31 -217 36 -295 10z m286 -140 c74
-36 118 -82 155 -161 22 -46 26 -69 26 -140 0 -76 -4 -93 -33 -152 -37 -76
-82 -120 -162 -157 -46 -22 -69 -26 -140 -26 -96 0 -165 25 -233 84 -52 46
-98 145 -104 224 -22 265 250 447 491 328z"/>
<path d="M475 768 c-3 -8 -4 -79 -3 -158 l3 -145 115 0 115 0 0 35 0 35 -77 3
-77 3 -3 117 -3 117 -33 3 c-20 2 -34 -2 -37 -10z"/>
</g>
</svg>
